<svg xmlns="http://www.w3.org/2000/svg" width="512" height="512" viewBox="0 0 512 512"><rect width="512" height="512" fill="#1a1a1a"/><g fill="#fff" transform="translate(97.28, 97.28) scale(0.31)"><path d="M272.097 418.112C223.137 411.165 175.682 399.18 140.853 361.528C118.976 337.877 110.292 314.714 104.317 283.896C107.723 288.363 110.989 292.857 115.162 296.689C133.331 313.377 155.41 319.308 179.129 322.737C197.337 325.369 213.817 325.058 231.998 325.144C251.827 325.249 271.656 325.222 291.484 325.063C337.589 324.79 369.06 324.615 409.961 349.723C426.643 360.001 441.319 373.225 453.273 388.75C458.873 396.068 465.827 406.339 469.768 414.522C495.641 468.238 499.089 540.842 478.623 596.637C470.551 563.926 454.725 540.417 425.797 522.696C402.314 507.851 378.487 505.299 351.4 505.964C314.781 506.862 279.288 507.069 246.416 488C218.961 472.073 194.026 445.192 184.501 414.448C211.506 416.865 242.777 419.107 269.974 419.511L272.097 418.112Z"/><path d="M563.416 723.899C561.577 718.051 559.858 710.18 558.828 704.019C548.939 644.876 555.717 567.87 590.882 517.767C614.839 483.845 653.735 458.387 695.694 455.128C747.376 451.114 800.38 458.429 851.894 449.997C880.291 445.348 903.39 435.221 920.443 411.38C916.806 430.534 914.534 441.93 905.203 459.787C874.108 519.295 812.016 538.146 750.09 546.186C752.134 547.392 754.169 546.81 757.121 547.071C765.785 547.408 783.27 546.151 792.497 545.593C809.191 544.651 825.879 543.611 842.56 542.474C837.037 556.001 831.805 565.664 823.407 577.355C800.445 608.275 763.331 629.949 724.903 633.464C707.441 635.289 689.219 633.18 671.814 634.172C629.439 636.588 587.62 662.755 570.478 702.19C567.382 709.313 565.456 716.513 563.416 723.899Z"/><path d="M298.562 527.75C316.073 527.568 341.155 526.819 358.239 527.996C367.481 569.024 387.524 603.503 421.355 629.113C454.701 654.633 496.939 665.605 538.49 659.54C540.766 684.134 544.661 698.667 552 722.332C543.655 724.378 533.824 725.035 525.191 725.437C495.884 726.802 471.799 722.194 444.38 712.73L438.357 710.644C437.765 711.188 437.162 711.721 436.549 712.242C403.965 739.888 363.379 756.363 320.744 759.252C308.552 759.966 298.437 759.286 286.385 758.286C326.604 725.826 341.255 705.593 353.401 654.802C317.823 617.772 299.503 578.299 290.116 528.051L298.562 527.75Z"/><path d="M509.401 263.225C516.615 262.827 528.297 263.589 535.533 264.329C571.432 267.809 605.995 279.742 636.395 299.151C686.939 330.773 722.74 381.292 735.826 439.459C708.838 439.701 696.096 438.028 669.068 445.518C664.1 424.144 650.286 401.116 636.25 384.341C615.889 359.328 582.077 339.525 550.917 331.82C511.02 321.879 468.805 328.315 433.684 349.694C416.148 333.473 392.802 322.029 370.16 315.013C381.714 304.661 389.035 300.651 401.972 293.225C436.001 273.692 470.172 264.837 509.401 263.225Z"/></g></svg>